<svg xmlns="http://www.w3.org/2000/svg" enable-background="new 0 0 32 32" viewBox="0 0 32 32"><path fill="#010101" d="M28.118,6.913c-0.048-0.271-0.31-0.461-0.579-0.405l-2.691,0.475c-0.272,0.048-0.454,0.307-0.405,0.579  c0.047,0.271,0.306,0.457,0.579,0.405l1.502-0.265l-7.184,10.26l-7.054-4.938c-0.225-0.16-0.539-0.104-0.696,0.122l-8.1,11.567  c-0.158,0.227-0.104,0.538,0.123,0.696C3.7,25.471,3.8,25.5,3.899,25.5c0.158,0,0.313-0.074,0.41-0.213l7.813-11.158l7.054,4.938  c0.108,0.077,0.244,0.106,0.374,0.083c0.13-0.022,0.247-0.097,0.323-0.205l7.471-10.669l0.265,1.502  c0.042,0.242,0.253,0.413,0.492,0.413c0.029,0,0.058-0.002,0.087-0.008c0.272-0.048,0.454-0.307,0.405-0.579L28.118,6.913z"/></svg>