<svg xmlns="http://www.w3.org/2000/svg" xmlns:xlink="http://www.w3.org/1999/xlink" enable-background="new 0 0 32 32" viewBox="0 0 32 32"><defs><linearGradient id="a"><stop offset="0" stop-color="#000092"/><stop offset="1" stop-color="#ff00f3"/></linearGradient><linearGradient id="b" x1="3.4" x2="25" y1="15.999" y2="15.999" gradientUnits="userSpaceOnUse" xlink:href="#a"/></defs><path fill="url(#b)" d="M 27.539062 6.5078125 L 24.847656 6.9824219 C 24.575656 7.0304219 24.394359 7.2905 24.443359 7.5625 C 24.490359 7.8335 24.748484 8.0187969 25.021484 7.9667969 L 26.523438 7.7011719 L 19.339844 17.962891 L 12.285156 13.023438 C 12.060156 12.863437 11.746844 12.920484 11.589844 13.146484 L 3.4902344 24.712891 C 3.3322344 24.939891 3.3862812 25.250203 3.6132812 25.408203 C 3.7002813 25.470203 3.7994375 25.5 3.8984375 25.5 C 4.0564375 25.5 4.2115937 25.426109 4.3085938 25.287109 L 12.121094 14.128906 L 19.175781 19.066406 C 19.283781 19.143406 19.420781 19.173391 19.550781 19.150391 C 19.680781 19.128391 19.797047 19.053312 19.873047 18.945312 L 27.34375 8.2753906 L 27.609375 9.7773438 C 27.651375 10.019344 27.862562 10.191406 28.101562 10.191406 C 28.130562 10.191406 28.1585 10.189594 28.1875 10.183594 C 28.4595 10.135594 28.64275 9.8755156 28.59375 9.6035156 L 28.117188 6.9121094 C 28.069188 6.6411094 27.808063 6.4518125 27.539062 6.5078125 z "/></svg>