<svg xmlns="http://www.w3.org/2000/svg" enable-background="new 0 0 64 64" viewBox="0 0 64 64"><path fill="#f4f8f8" d="M14,26.99H8v-5c0-1.105,0.895-2,2-2h2c1.105,0,2,0.895,2,2V26.99z"/><path fill="#dbe7f6" d="M8,25.99v1h6v-5c0-0.552-0.224-1.052-0.586-1.414L8,25.99z"/><circle cx="11.03" cy="16.019" r="2" fill="#f4f8f8"/><path fill="#f4f8f8" d="M56,26.99h-6v-5c0-1.105,0.895-2,2-2h2c1.105,0,2,0.895,2,2V26.99z"/><path fill="#dbe7f6" d="M50,25.99v1h6v-5c0-0.552-0.224-1.052-0.586-1.414L50,25.99z"/><circle cx="53.03" cy="16.019" r="2" fill="#f4f8f8"/><path fill="#f4f8f8" d="M14,50.99H8v-5c0-1.105,0.895-2,2-2h2c1.105,0,2,0.895,2,2V50.99z"/><path fill="#dbe7f6" d="M8,49.99v1h6v-5c0-0.552-0.224-1.052-0.586-1.414L8,49.99z"/><circle cx="11.03" cy="40.019" r="2" fill="#f4f8f8"/><path fill="#f4f8f8" d="M56,50.99h-6v-5c0-1.105,0.895-2,2-2h2c1.105,0,2,0.895,2,2V50.99z"/><path fill="#dbe7f6" d="M50,49.99v1h6v-5c0-0.552-0.224-1.052-0.586-1.414L50,49.99z"/><circle cx="53.03" cy="40.019" r="2" fill="#f4f8f8"/><path fill="#f4f8f8" d="M35,14.99h-6v-5c0-1.105,0.895-2,2-2h2c1.105,0,2,0.895,2,2V14.99z"/><path fill="#dbe7f6" d="M29,13.99v1h6v-5c0-0.552-0.224-1.052-0.586-1.414L29,13.99z"/><circle cx="32.03" cy="4.019" r="2" fill="#f4f8f8"/><path fill="#f4f8f8" d="M35,35.99h-6v-5c0-1.105,0.895-2,2-2h2c1.105,0,2,0.895,2,2V35.99z"/><path fill="#dbe7f6" d="M29,34.99v1h6v-5c0-0.552-0.224-1.052-0.586-1.414L29,34.99z"/><circle cx="32.03" cy="25.019" r="2" fill="#f4f8f8"/><path fill="#f4f8f8" d="M35,62h-6v-5c0-1.105,0.895-2,2-2h2c1.105,0,2,0.895,2,2V62z"/><path fill="#dbe7f6" d="M29,61v1h6v-5c0-0.552-0.224-1.052-0.586-1.414L29,61z"/><circle cx="32.03" cy="51.029" r="2" fill="#f4f8f8"/><circle cx="16.03" cy="41.24" r=".5" fill="#4574ba" transform="rotate(-60.166 16.03 41.239)"/><circle cx="17.765" cy="42.235" r=".5" fill="#4574ba" transform="rotate(-60.166 17.764 42.233)"/><circle cx="19.5" cy="43.23" r=".5" fill="#4574ba" transform="rotate(-60.166 19.499 43.229)"/><circle cx="21.235" cy="44.225" r=".5" fill="#4574ba" transform="rotate(-60.166 21.234 44.223)"/><circle cx="22.97" cy="45.22" r=".5" fill="#4574ba" transform="rotate(-60.166 22.968 45.218)"/><circle cx="24.705" cy="46.215" r=".5" fill="#4574ba" transform="rotate(-60.166 24.703 46.213)"/><circle cx="26.44" cy="47.21" r=".5" fill="#4574ba" transform="rotate(-60.166 26.438 47.208)"/><circle cx="48.03" cy="41.237" r=".5" fill="#4574ba" transform="rotate(-29.834 48.03 41.237)"/><circle cx="46.295" cy="42.232" r=".5" fill="#4574ba" transform="rotate(-29.834 46.296 42.232)"/><circle cx="44.56" cy="43.227" r=".5" fill="#4574ba" transform="rotate(-29.834 44.56 43.227)"/><circle cx="42.825" cy="44.222" r=".5" fill="#4574ba" transform="rotate(-29.834 42.826 44.222)"/><circle cx="41.09" cy="45.217" r=".5" fill="#4574ba" transform="rotate(-29.834 41.09 45.217)"/><circle cx="39.355" cy="46.212" r=".5" fill="#4574ba" transform="rotate(-29.834 39.356 46.212)"/><circle cx="37.621" cy="47.207" r=".5" fill="#4574ba" transform="rotate(-29.834 37.621 47.207)"/><path fill="#437abe" d="M32.03 46.418c-.276 0-.5-.224-.5-.5V38.99c0-.276.224-.5.5-.5s.5.224.5.5v6.928C32.53 46.195 32.307 46.418 32.03 46.418zM32.03 6.519c-1.379 0-2.5-1.122-2.5-2.5s1.121-2.5 2.5-2.5 2.5 1.122 2.5 2.5S33.409 6.519 32.03 6.519zM32.03 2.519c-.827 0-1.5.673-1.5 1.5s.673 1.5 1.5 1.5 1.5-.673 1.5-1.5S32.857 2.519 32.03 2.519z"/><circle cx="16.03" cy="25.237" r=".5" fill="#4574ba"/><circle cx="16.03" cy="27.237" r=".5" fill="#4574ba"/><circle cx="16.03" cy="29.237" r=".5" fill="#4574ba"/><circle cx="16.03" cy="31.237" r=".5" fill="#4574ba"/><circle cx="16.03" cy="33.237" r=".5" fill="#4574ba"/><circle cx="16.03" cy="35.237" r=".5" fill="#4574ba"/><circle cx="16.03" cy="37.237" r=".5" fill="#4574ba"/><circle cx="16.03" cy="39.237" r=".5" fill="#4574ba"/><circle cx="48.03" cy="39.237" r=".5" fill="#4574ba"/><circle cx="48.03" cy="25.237" r=".5" fill="#4574ba"/><circle cx="48.03" cy="27.237" r=".5" fill="#4574ba"/><circle cx="48.03" cy="29.237" r=".5" fill="#4574ba"/><circle cx="48.03" cy="31.237" r=".5" fill="#4574ba"/><circle cx="48.03" cy="33.237" r=".5" fill="#4574ba"/><circle cx="48.03" cy="35.237" r=".5" fill="#4574ba"/><circle cx="48.03" cy="37.237" r=".5" fill="#4574ba"/><circle cx="28.175" cy="48.205" r=".5" fill="#4574ba" transform="rotate(-60.166 28.173 48.203)"/><circle cx="35.886" cy="48.202" r=".5" fill="#4574ba" transform="rotate(-29.834 35.886 48.202)"/><circle cx="18.633" cy="21.742" r=".5" fill="#4574ba" transform="rotate(-29.834 18.633 21.742)"/><circle cx="20.368" cy="20.747" r=".5" fill="#4574ba" transform="rotate(-29.834 20.368 20.747)"/><circle cx="22.102" cy="19.752" r=".5" fill="#4574ba" transform="rotate(-29.834 22.103 19.752)"/><circle cx="23.837" cy="18.757" r=".5" fill="#4574ba" transform="rotate(-29.834 23.838 18.757)"/><circle cx="25.572" cy="17.762" r=".5" fill="#4574ba" transform="rotate(-29.834 25.573 17.762)"/><circle cx="27.307" cy="16.767" r=".5" fill="#4574ba" transform="rotate(-29.834 27.307 16.767)"/><circle cx="36.633" cy="16.767" r=".5" fill="#4574ba" transform="rotate(-60.166 36.63 16.767)"/><circle cx="38.368" cy="17.762" r=".5" fill="#4574ba" transform="rotate(-60.166 38.366 17.762)"/><circle cx="40.102" cy="18.757" r=".5" fill="#4574ba" transform="rotate(-60.166 40.1 18.757)"/><circle cx="41.837" cy="19.752" r=".5" fill="#4574ba" transform="rotate(-60.166 41.835 19.752)"/><circle cx="43.572" cy="20.747" r=".5" fill="#4574ba" transform="rotate(-60.166 43.57 20.747)"/><circle cx="45.307" cy="21.742" r=".5" fill="#4574ba" transform="rotate(-60.166 45.305 21.742)"/><path fill="#437abe" d="M35 15.49h-6c-.276 0-.5-.224-.5-.5v-5c0-1.378 1.121-2.5 2.5-2.5h2c1.379 0 2.5 1.122 2.5 2.5v5C35.5 15.267 35.276 15.49 35 15.49zM29.5 14.49h5v-4.5c0-.827-.673-1.5-1.5-1.5h-2c-.827 0-1.5.673-1.5 1.5V14.49zM32.03 27.519c-1.379 0-2.5-1.122-2.5-2.5s1.121-2.5 2.5-2.5 2.5 1.122 2.5 2.5S33.409 27.519 32.03 27.519zM32.03 23.519c-.827 0-1.5.673-1.5 1.5s.673 1.5 1.5 1.5 1.5-.673 1.5-1.5S32.857 23.519 32.03 23.519zM35 36.49h-6c-.276 0-.5-.224-.5-.5v-5c0-1.378 1.121-2.5 2.5-2.5h2c1.379 0 2.5 1.122 2.5 2.5v5C35.5 36.267 35.276 36.49 35 36.49zM29.5 35.49h5v-4.5c0-.827-.673-1.5-1.5-1.5h-2c-.827 0-1.5.673-1.5 1.5V35.49zM32.121 53.51c-1.379 0-2.5-1.122-2.5-2.5s1.121-2.5 2.5-2.5 2.5 1.122 2.5 2.5S33.5 53.51 32.121 53.51zM32.121 49.51c-.827 0-1.5.673-1.5 1.5s.673 1.5 1.5 1.5 1.5-.673 1.5-1.5S32.948 49.51 32.121 49.51zM35.091 62.481h-6c-.276 0-.5-.224-.5-.5v-5c0-1.378 1.121-2.5 2.5-2.5h2c1.379 0 2.5 1.122 2.5 2.5v5C35.591 62.258 35.367 62.481 35.091 62.481zM29.591 61.481h5v-4.5c0-.827-.673-1.5-1.5-1.5h-2c-.827 0-1.5.673-1.5 1.5V61.481zM11.03 18.519c-1.379 0-2.5-1.122-2.5-2.5s1.121-2.5 2.5-2.5 2.5 1.122 2.5 2.5S12.409 18.519 11.03 18.519zM11.03 14.519c-.827 0-1.5.673-1.5 1.5s.673 1.5 1.5 1.5 1.5-.673 1.5-1.5S11.857 14.519 11.03 14.519zM14 27.49H8c-.276 0-.5-.224-.5-.5v-5c0-1.378 1.121-2.5 2.5-2.5h2c1.379 0 2.5 1.122 2.5 2.5v5C14.5 27.267 14.276 27.49 14 27.49zM8.5 26.49h5v-4.5c0-.827-.673-1.5-1.5-1.5h-2c-.827 0-1.5.673-1.5 1.5V26.49zM53.03 18.519c-1.379 0-2.5-1.122-2.5-2.5s1.121-2.5 2.5-2.5 2.5 1.122 2.5 2.5S54.409 18.519 53.03 18.519zM53.03 14.519c-.827 0-1.5.673-1.5 1.5s.673 1.5 1.5 1.5 1.5-.673 1.5-1.5S53.857 14.519 53.03 14.519zM56 27.49h-6c-.276 0-.5-.224-.5-.5v-5c0-1.378 1.121-2.5 2.5-2.5h2c1.379 0 2.5 1.122 2.5 2.5v5C56.5 27.267 56.276 27.49 56 27.49zM50.5 26.49h5v-4.5c0-.827-.673-1.5-1.5-1.5h-2c-.827 0-1.5.673-1.5 1.5V26.49zM11.03 42.519c-1.379 0-2.5-1.122-2.5-2.5s1.121-2.5 2.5-2.5 2.5 1.122 2.5 2.5S12.409 42.519 11.03 42.519zM11.03 38.519c-.827 0-1.5.673-1.5 1.5s.673 1.5 1.5 1.5 1.5-.673 1.5-1.5S11.857 38.519 11.03 38.519zM14 51.49H8c-.276 0-.5-.224-.5-.5v-5c0-1.378 1.121-2.5 2.5-2.5h2c1.379 0 2.5 1.122 2.5 2.5v5C14.5 51.267 14.276 51.49 14 51.49zM8.5 50.49h5v-4.5c0-.827-.673-1.5-1.5-1.5h-2c-.827 0-1.5.673-1.5 1.5V50.49zM53.03 42.519c-1.379 0-2.5-1.122-2.5-2.5s1.121-2.5 2.5-2.5 2.5 1.122 2.5 2.5S54.409 42.519 53.03 42.519zM53.03 38.519c-.827 0-1.5.673-1.5 1.5s.673 1.5 1.5 1.5 1.5-.673 1.5-1.5S53.857 38.519 53.03 38.519zM56 51.49h-6c-.276 0-.5-.224-.5-.5v-5c0-1.378 1.121-2.5 2.5-2.5h2c1.379 0 2.5 1.122 2.5 2.5v5C56.5 51.267 56.276 51.49 56 51.49zM50.5 50.49h5v-4.5c0-.827-.673-1.5-1.5-1.5h-2c-.827 0-1.5.673-1.5 1.5V50.49zM53.03 36.49c-.276 0-.5-.224-.5-.5v-7c0-.276.224-.5.5-.5s.5.224.5.5v7C53.53 36.267 53.307 36.49 53.03 36.49zM37 53.617c-.172 0-.341-.089-.433-.25-.139-.239-.057-.545.183-.683l11-6.351c.238-.138.545-.058.683.183.139.239.057.545-.183.683l-11 6.351C37.171 53.595 37.085 53.617 37 53.617zM27 53.582c-.085 0-.171-.021-.25-.067l-11-6.351c-.239-.138-.321-.444-.183-.683.138-.239.444-.319.683-.183l11 6.351c.239.138.321.444.183.683C27.341 53.492 27.172 53.582 27 53.582zM11.03 36.49c-.276 0-.5-.224-.5-.5v-7c0-.276.224-.5.5-.5s.5.224.5.5v7C11.53 36.267 11.307 36.49 11.03 36.49zM15 17.821c-.172 0-.341-.089-.433-.25-.139-.239-.057-.545.183-.683l12-6.928c.238-.138.545-.058.683.183.139.239.057.545-.183.683l-12 6.928C15.171 17.799 15.085 17.821 15 17.821zM49 17.786c-.085 0-.171-.021-.25-.067l-12-6.928c-.239-.138-.321-.444-.183-.683.138-.239.444-.319.683-.183l12 6.928c.239.138.321.444.183.683C49.341 17.696 49.172 17.786 49 17.786zM37 29.538c-.172 0-.341-.089-.433-.25-.139-.239-.057-.545.183-.683l11-6.351c.238-.139.545-.057.683.183.139.239.057.545-.183.683l-11 6.351C37.171 29.516 37.085 29.538 37 29.538zM27 29.538c-.085 0-.171-.021-.25-.067l-11-6.351c-.239-.138-.321-.444-.183-.683.138-.239.444-.32.683-.183l11 6.351c.239.138.321.444.183.683C27.341 29.448 27.172 29.538 27 29.538z"/></svg>